<?xml version="1.0"?>
<svg width="130" height="100" viewBox="0 0 130 100" xmlns="http://www.w3.org/2000/svg">
  <path d="m64.12,3.91c-18.85,0 -36.56,1.44 -45.98,3.45c-6.28,1.44 -11.71,5.75 -12.85,12.36c-1.14,6.9 -2.28,17.25 -2.28,30.19c0,12.94 1.14,23 2.57,30.19c1.14,6.33 6.57,10.93 12.85,12.36c10,2.01 27.13,3.45 45.98,3.45c18.85,0 35.99,-1.44 45.98,-3.45c6.28,-1.44 11.71,-5.75 12.85,-12.36c1.14,-7.19 2.57,-17.54 2.86,-30.48c0,-12.94 -1.43,-23.29 -2.86,-30.48c-1.14,-6.33 -6.57,-10.93 -12.85,-12.36c-10,-1.44 -27.42,-2.88 -46.27,-2.88zm0,5.75c20.56,0 37.13,1.73 45.13,3.16c4.28,1.15 7.71,4.03 8.28,7.76c1.71,9.2 2.86,18.98 2.86,29.04c-0.29,12.36 -1.71,22.43 -2.86,29.61c-0.86,5.46 -6.57,7.19 -8.28,7.76c-10.28,2.01 -27.42,3.45 -44.56,3.45c-17.14,0 -34.56,-1.15 -44.56,-3.45c-4.28,-1.15 -7.71,-4.03 -8.28,-7.76c-2.28,-8.05 -3.14,-18.69 -3.14,-29.33c0,-13.23 1.14,-23 2.28,-29.04c0.86,-5.46 6.85,-7.19 8.28,-7.76c9.43,-2.01 26.85,-3.45 44.84,-3.45zm-15.42,17.25l0,46l39.99,-23l-39.99,-23zm5.71,9.78l22.85,13.23l-22.85,13.23l0,-26.45z" id="svg_1"/>
</svg>